<svg id="Livello_1" data-name="Livello 1" xmlns="http://www.w3.org/2000/svg" viewBox="0 0 8192 808.72"><defs><style>.cls-1{isolation:isolate;}.cls-2{fill:#fff;}</style></defs><path d="M3783,467.82V380.54h13.23c7.78,0,13.19,3.75,16.1,11.14s4.44,18.2,4.44,31.71a125.72,125.72,0,0,1-2,24.11c-1.31,6.57-3.61,11.68-6.84,15.14s-7.76,5.18-13.58,5.18Z" transform="translate(0 -88.06)"/><path d="M3796.18,381c7.7,0,12.84,3.56,15.71,10.88,2.93,7.49,4.42,18.1,4.42,31.56a126.48,126.48,0,0,1-2,24c-1.3,6.5-3.57,11.5-6.74,14.95s-7.59,5-13.28,5h-11V381h12.83m0-.83h-13.65V468.2h11.77q8.94,0,13.88-5.31t7-15.31a125,125,0,0,0,2-24.19q0-20.44-4.47-31.86t-16.47-11.41Z" transform="translate(0 -88.06)"/><path d="M3385,466.64V382.88h13.47c5.48,0,9.56,1.8,12.14,5.34s4.29,8.5,5,14.56a188,188,0,0,1,1.06,21.35,180.66,180.66,0,0,1-1.29,23.94c-.82,6.18-2.6,10.87-5.2,14s-6.43,4.58-11.5,4.58Z" transform="translate(0 -88.06)"/><path d="M3398.47,383.3c5.41,0,9.28,1.69,11.81,5.18s4.22,8.36,4.93,14.36a190.3,190.3,0,0,1,1.05,21.35,183.2,183.2,0,0,1-1.29,23.88c-.82,6.1-2.55,10.72-5.11,13.74s-6.24,4.43-11.13,4.43h-13.31V383.3h13.07m0-.82H3384.6v84.58h14.13q7.76,0,11.76-4.72t5.29-14.16a181.51,181.51,0,0,0,1.3-24,189.55,189.55,0,0,0-1.06-21.44q-1-9.24-5.06-14.78t-12.47-5.51Z" transform="translate(0 -88.06)"/><path d="M0,896.78V88.06H8192V896.78Z" transform="translate(0 -88.06)"/><polygon points="4468.25 453.7 4477.94 334.88 4487.61 453.7 4468.25 453.7"/><path d="M4477.93,428l9.23,113.32H4468.7L4477.93,428m0-10.12-10.12,124.29h20.24l-10.12-124.29Z" transform="translate(0 -88.06)"/><polygon points="3247.36 453.7 3257.03 334.88 3266.71 453.7 3247.36 453.7"/><path d="M3257,428l9.23,113.32H3247.8L3257,428m0-10.12-10.12,124.29h20.24L3257,417.88Z" transform="translate(0 -88.06)"/><g class="cls-1"><path class="cls-2" d="M3179.72,316.51h61.59l28.46,312.57h1.17l30.21-312.57h69.72l30.21,312.57h1.16l28.47-312.57h55.19l-41.25,406.7h-79.59L3336,449h-1.16l-29,274.23H3221Z" transform="translate(0 -88.06)"/><path class="cls-2" d="M3518.44,316.51h174.3v58.1H3582.35V482.09h87.73v58.1h-87.73V665.11h110.39v58.1h-174.3Z" transform="translate(0 -88.06)"/><path class="cls-2" d="M3729.34,316.51h63.91v348.6h105.16v58.1H3729.34Z" transform="translate(0 -88.06)"/><path class="cls-2" d="M3922.81,629.08V410.63c0-62.75,32.53-99.93,94.12-99.93s94.12,37.18,94.12,99.93v43h-60.42V406.56c0-26.72-12.79-37.76-32-37.76s-32,11-32,37.76V633.73c0,26.73,12.78,37.19,32,37.19s32-10.46,32-37.19V571.57h60.42v57.51c0,62.75-32.54,99.94-94.12,99.94S3922.81,691.83,3922.81,629.08Z" transform="translate(0 -88.06)"/><path class="cls-2" d="M4145.91,626.76V413c0-65.08,34.28-102.26,97-102.26s97,37.18,97,102.26v213.8c0,65.07-34.28,102.26-97,102.26S4145.91,691.83,4145.91,626.76Zm130.14,4.07V408.89c0-29.05-12.78-40.09-33.12-40.09s-33.11,11-33.11,40.09V630.83c0,29,12.78,40.09,33.11,40.09S4276.05,659.88,4276.05,630.83Z" transform="translate(0 -88.06)"/><path class="cls-2" d="M4383,316.51h91.22l40.67,291.08H4516l40.67-291.08h91.22v406.7h-60.43V415.28h-1.16l-46.48,307.93h-53.45l-46.48-307.93h-1.16V723.21H4383Z" transform="translate(0 -88.06)"/><path class="cls-2" d="M4695.53,316.51h174.3v58.1H4759.44V482.09h87.73v58.1h-87.73V665.11h110.39v58.1h-174.3Z" transform="translate(0 -88.06)"/><path class="cls-2" d="M5049.34,374.61h-66.81v-58.1h197.54v58.1h-66.82v348.6h-63.91Z" transform="translate(0 -88.06)"/><path class="cls-2" d="M5203.89,626.76V413c0-65.08,34.28-102.26,97-102.26s97,37.18,97,102.26v213.8c0,65.07-34.27,102.26-97,102.26S5203.89,691.83,5203.89,626.76ZM5334,630.83V408.89c0-29.05-12.78-40.09-33.11-40.09s-33.12,11-33.12,40.09V630.83c0,29,12.78,40.09,33.12,40.09S5334,659.88,5334,630.83Z" transform="translate(0 -88.06)"/></g></svg>