<svg id="Livello_1" data-name="Livello 1" xmlns="http://www.w3.org/2000/svg" viewBox="0 0 8192 808.72"><defs><style>.cls-1{isolation:isolate;}.cls-2{fill:#fff;}</style></defs><path d="M3783,467.82V380.54h13.23c7.78,0,13.19,3.75,16.1,11.14s4.44,18.2,4.44,31.71a125.72,125.72,0,0,1-2,24.11c-1.31,6.57-3.61,11.68-6.84,15.14s-7.76,5.18-13.58,5.18Z" transform="translate(0 -88.06)"/><path d="M3796.18,381c7.7,0,12.84,3.56,15.71,10.88,2.93,7.49,4.42,18.1,4.42,31.56a126.48,126.48,0,0,1-2,24c-1.3,6.5-3.57,11.5-6.74,14.95s-7.59,5-13.28,5h-11V381h12.83m0-.83h-13.65V468.2h11.77q8.94,0,13.88-5.31t7-15.31a125,125,0,0,0,2-24.19q0-20.44-4.47-31.86t-16.47-11.41Z" transform="translate(0 -88.06)"/><path d="M3385,466.64V382.88h13.47c5.48,0,9.56,1.8,12.14,5.34s4.29,8.5,5,14.56a188,188,0,0,1,1.06,21.35,180.66,180.66,0,0,1-1.29,23.94c-.82,6.18-2.6,10.87-5.2,14s-6.43,4.58-11.5,4.58Z" transform="translate(0 -88.06)"/><path d="M3398.47,383.3c5.41,0,9.28,1.69,11.81,5.18s4.22,8.36,4.93,14.36a190.3,190.3,0,0,1,1.05,21.35,183.2,183.2,0,0,1-1.29,23.88c-.82,6.1-2.55,10.72-5.11,13.74s-6.24,4.43-11.13,4.43h-13.31V383.3h13.07m0-.82H3384.6v84.58h14.13q7.76,0,11.76-4.72t5.29-14.16a181.51,181.51,0,0,0,1.3-24,189.55,189.55,0,0,0-1.06-21.44q-1-9.24-5.06-14.78t-12.47-5.51Z" transform="translate(0 -88.06)"/><path d="M0,896.78V88.06H8192V896.78Z" transform="translate(0 -88.06)"/><polygon points="4468.25 453.7 4477.94 334.88 4487.61 453.7 4468.25 453.7"/><path d="M4477.93,428l9.23,113.32H4468.7L4477.93,428m0-10.12-10.12,124.29h20.24l-10.12-124.29Z" transform="translate(0 -88.06)"/><polygon points="3247.36 453.7 3257.03 334.88 3266.71 453.7 3247.36 453.7"/><path d="M3257,428l9.23,113.32H3247.8L3257,428m0-10.12-10.12,124.29h20.24L3257,417.88Z" transform="translate(0 -88.06)"/><g class="cls-1"><path class="cls-2" d="M3318.46,310.53h94.12c63.91,0,95.28,35.44,95.28,100.51v40.09c0,65.07-31.37,100.51-95.28,100.51h-30.21V717.23h-63.91Zm94.12,183c20.34,0,31.37-9.29,31.37-38.34V407c0-29.05-11-38.35-31.37-38.35h-30.21V493.54Z" transform="translate(0 -88.06)"/><path class="cls-2" d="M3538.07,620.78V407c0-65.07,34.28-102.26,97-102.26s97,37.19,97,102.26v213.8c0,65.07-34.28,102.26-97,102.26S3538.07,685.85,3538.07,620.78Zm130.14,4.07V402.91c0-29.05-12.78-40.09-33.11-40.09s-33.12,11-33.12,40.09V624.85c0,29,12.78,40.09,33.12,40.09S3668.21,653.9,3668.21,624.85Z" transform="translate(0 -88.06)"/><path class="cls-2" d="M3775.11,310.53H3839v348.6h105.16v58.1H3775.11Z" transform="translate(0 -88.06)"/><path class="cls-2" d="M3982.53,544.09l-77.27-233.56h68l43.58,149.32H4018l43.57-149.32h62.17l-77.27,233.56V717.23h-63.91Z" transform="translate(0 -88.06)"/><path class="cls-2" d="M4152.76,310.53h94.12c63.91,0,95.28,35.44,95.28,100.51v40.09c0,65.07-31.37,100.51-95.28,100.51h-30.21V717.23h-63.91Zm94.12,183c20.34,0,31.38-9.29,31.38-38.34V407c0-29.05-11-38.35-31.38-38.35h-30.21V493.54Z" transform="translate(0 -88.06)"/><path class="cls-2" d="M4377,310.53h63.91V476.12h68.55V310.53h63.91v406.7h-63.91v-183h-68.55v183H4377Z" transform="translate(0 -88.06)"/><path class="cls-2" d="M4621,310.53H4685v406.7H4621Z" transform="translate(0 -88.06)"/><path class="cls-2" d="M4782,310.53h86.57l66.23,406.7h-63.91l-11.62-80.76v1.16h-72.62L4775,717.23h-59.26Zm69.72,271.91-28.47-201h-1.17l-27.88,201Z" transform="translate(0 -88.06)"/></g></svg>